<svg width="115" height="81" viewBox="0 0 115 81" fill="none" xmlns="http://www.w3.org/2000/svg">
<path d="M24.1866 0.278809H109.187C109.915 0.278809 110.508 0.734328 110.508 1.3265V72.5697C110.508 73.1619 109.915 73.6174 109.187 73.6174H24.1866C23.4578 73.6174 22.8656 73.1619 22.8656 72.5697V61.2273H25.5076V71.5676H107.866V2.3742H25.5076V39.7268H22.8656V1.3265C22.8656 0.734328 23.4578 0.278809 24.1866 0.278809Z" fill="#EF7F1A"/>
<path fill-rule="evenodd" clip-rule="evenodd" d="M30.7006 8.61475H60.2182V65.3269H30.7006V61.2272H44.275C46.6893 61.2272 48.648 59.2229 48.648 56.8087V44.1452C48.648 41.731 46.6893 39.7267 44.275 39.7267H30.7006V8.61475V8.61475Z" stroke="#EF7F1A" stroke-width="0.686695" stroke-miterlimit="22.9256" stroke-linecap="round" stroke-linejoin="round"/>
<path fill-rule="evenodd" clip-rule="evenodd" d="M62.8602 6.92944H103.083V66.9669H62.8602V6.92944ZM65.6389 9.70811H100.258V64.2338H65.6389V36.6749H64.819C64.2268 36.6749 63.7713 36.2193 63.7713 35.6727C63.7713 35.1261 64.2268 34.6706 64.819 34.6706H65.6389V9.70811V9.70811Z" stroke="#EF7F1A" stroke-width="0.686695" stroke-miterlimit="22.9256" stroke-linecap="round" stroke-linejoin="round"/>
<path d="M113.605 72.9341H19.4949V79.7213H113.605V72.9341Z" stroke="#EF7F1A" stroke-width="1.37339" stroke-miterlimit="22.9256" stroke-linecap="round" stroke-linejoin="round"/>
<path d="M69.6019 34.6704H64.8645C64.311 34.6704 63.8623 35.1191 63.8623 35.6726C63.8623 36.226 64.311 36.6747 64.8645 36.6747H69.6019C70.1553 36.6747 70.604 36.226 70.604 35.6726C70.604 35.1191 70.1553 34.6704 69.6019 34.6704Z" stroke="#EF7F1A" stroke-width="0.686695" stroke-miterlimit="22.9256" stroke-linecap="round" stroke-linejoin="round"/>
<path fill-rule="evenodd" clip-rule="evenodd" d="M12.2976 39.7268H44.275C46.6893 39.7268 48.648 41.7311 48.648 44.1453V56.8088C48.648 59.223 46.6893 61.2273 44.275 61.2273H12.2976C10.2933 61.2273 8.56234 59.8152 8.06127 57.9476C4.28046 57.5832 1.31958 54.4401 1.31958 50.6137C1.31958 46.7874 4.23491 43.6443 8.01572 43.2343C8.42569 41.2756 10.2022 39.7268 12.2976 39.7268V39.7268Z" stroke="#EF7F1A" stroke-width="1.37339" stroke-miterlimit="22.9256"/>
<path d="M8.06122 53.028C9.54552 53.028 10.7488 51.8247 10.7488 50.3404C10.7488 48.8561 9.54552 47.6528 8.06122 47.6528C6.57692 47.6528 5.37366 48.8561 5.37366 50.3404C5.37366 51.8247 6.57692 53.028 8.06122 53.028Z" stroke="#EF7F1A" stroke-width="0.686695" stroke-miterlimit="22.9256"/>
<path d="M35.9391 49.3838H32.0216V57.0821H35.9391V49.3838Z" stroke="#EF7F1A" stroke-width="0.686695" stroke-miterlimit="22.9256"/>
<path d="M32.0216 50.2037C31.1106 49.4749 30.1996 48.7916 29.6529 48.1994C29.0608 47.6072 28.8786 47.1062 28.6963 46.6051C28.5141 46.104 28.3319 45.603 28.2408 45.1474C28.1497 44.6464 28.1497 44.2364 28.0586 43.9631C28.0131 43.6898 27.922 43.5531 27.7397 43.462C27.5575 43.4165 27.2387 43.462 27.0109 43.462C26.7832 43.5076 26.601 43.5987 26.4188 43.872C26.2821 44.0997 26.1454 44.5553 26.0999 45.1019C26.0543 45.6941 26.0543 46.3773 26.0999 47.0151C26.191 47.6528 26.2821 48.245 26.4188 48.6094C26.601 49.0194 26.7832 49.2016 26.8287 49.2927C26.8743 49.3838 26.7376 49.3838 25.9177 49.3838C25.0977 49.3838 23.549 49.3838 22.6835 49.4293C21.8636 49.4293 21.7724 49.5204 21.6358 49.6571C21.4991 49.8393 21.3169 50.067 21.2714 50.2948C21.1803 50.5226 21.1803 50.7503 21.3169 50.9781C21.4536 51.2514 21.7269 51.4792 21.818 51.6158C21.9091 51.7525 21.8636 51.7525 21.818 51.8436C21.7269 51.8891 21.6813 52.0258 21.6358 52.208C21.5902 52.4358 21.6358 52.6635 21.7269 52.8913C21.818 53.0735 22.0002 53.3012 22.1369 53.3923C22.3191 53.529 22.4102 53.5745 22.4102 53.6201C22.4102 53.6656 22.3646 53.7112 22.3191 53.8023C22.228 53.939 22.1369 54.1667 22.1369 54.44C22.1369 54.7133 22.2735 54.9867 22.4557 55.1689C22.6835 55.3966 22.9568 55.5333 23.0935 55.6244C23.2301 55.7155 23.1846 55.7155 23.139 55.8066C23.0479 55.8977 23.0024 55.9888 23.0479 56.2166C23.0479 56.3988 23.1846 56.6721 23.3668 56.8998C23.549 57.082 23.7767 57.2187 24.8244 57.3098C25.8721 57.3554 27.7398 57.3098 29.0608 57.082C30.3818 56.8998 31.2017 56.4899 32.0216 56.0799" stroke="#EF7F1A" stroke-width="0.686695" stroke-miterlimit="22.9256"/>
<path d="M9.01787 52.8458C9.10897 52.0714 9.24563 51.2515 8.6079 50.8415C8.01573 50.4315 6.69472 50.386 5.37372 51.3426C4.00716 52.2992 2.64059 54.2123 2.45838 56.3533C2.27618 58.4942 3.27832 60.8629 5.23706 62.5483C7.19579 64.2338 10.1567 65.2815 12.5254 66.1925C14.9396 67.1035 16.8528 67.8779 17.9461 68.9712C18.9938 70.0644 19.2671 71.5221 19.4948 72.9342" stroke="#EF7F1A" stroke-width="0.686695" stroke-miterlimit="22.9256"/>
<path d="M12.2976 61.2273C13.6642 62.8672 14.9852 64.5526 16.2151 65.7825C17.3994 67.0579 18.4927 67.9234 19.0393 69.0167C19.5404 70.1555 19.5404 71.5676 19.4948 72.9341" stroke="#EF7F1A" stroke-width="0.686695" stroke-miterlimit="22.9256"/>
</svg>
