<svg width="75" height="85" viewBox="0 0 75 85" fill="none" xmlns="http://www.w3.org/2000/svg">
<path fill-rule="evenodd" clip-rule="evenodd" d="M1 6.72559H15.7908V10.0655H43.9412V6.72559H59.2092V50.1439C58.732 50.1439 57.7778 50.1439 57.3007 50.1439C55.3922 50.1439 53.9608 50.1439 52.5294 50.621V14.8367H15.3137L8.15686 21.0393V66.3661H40.6013V66.8432C40.6013 69.2288 41.0784 71.6145 42.0327 73.523H1V6.72559V6.72559Z" stroke="#EF7F1A" stroke-width="1.80791" stroke-miterlimit="22.9256" stroke-linecap="round" stroke-linejoin="round"/>
<path fill-rule="evenodd" clip-rule="evenodd" d="M15.7909 3.3855H24.3791V4.33975H34.8759V3.3855H43.9412V10.0652H15.7909V3.3855Z" stroke="#EF7F1A" stroke-width="1.80791" stroke-miterlimit="22.9256" stroke-linecap="round" stroke-linejoin="round"/>
<path d="M34.8758 1H24.379V4.33987H34.8758V1Z" stroke="#EF7F1A" stroke-width="1.80791" stroke-miterlimit="22.9256" stroke-linecap="round" stroke-linejoin="round"/>
<path fill-rule="evenodd" clip-rule="evenodd" d="M15.3137 14.8367H52.5294V50.621C45.8497 52.5295 40.6013 58.7321 40.6013 66.3661H8.15686V21.0393L15.3137 14.8367V14.8367Z" stroke="#EF7F1A" stroke-width="1.80791" stroke-miterlimit="22.9256" stroke-linecap="round" stroke-linejoin="round"/>
<path fill-rule="evenodd" clip-rule="evenodd" d="M15.3137 14.8367L8.15686 21.0393H15.3137V14.8367Z" stroke="#EF7F1A" stroke-width="0.903955" stroke-miterlimit="22.9256" stroke-linecap="round" stroke-linejoin="round"/>
<path d="M21.0392 27.2417H13.8823V33.9214H21.0392V27.2417Z" stroke="#EF7F1A" stroke-width="0.903955" stroke-miterlimit="22.9256" stroke-linecap="round" stroke-linejoin="round"/>
<path d="M21.0392 40.6013H13.8823V47.2811H21.0392V40.6013Z" stroke="#EF7F1A" stroke-width="0.903955" stroke-miterlimit="22.9256" stroke-linecap="round" stroke-linejoin="round"/>
<path d="M21.0392 53.0066H13.8823V59.6863H21.0392V53.0066Z" stroke="#EF7F1A" stroke-width="0.903955" stroke-miterlimit="22.9256" stroke-linecap="round" stroke-linejoin="round"/>
<path d="M25.3334 29.6274H47.2811" stroke="#EF7F1A" stroke-width="0.903955" stroke-miterlimit="22.9256" stroke-linecap="round" stroke-linejoin="round"/>
<path d="M25.8104 32.0129H39.1699" stroke="#EF7F1A" stroke-width="0.903955" stroke-miterlimit="22.9256" stroke-linecap="round" stroke-linejoin="round"/>
<path d="M25.3334 42.5098H47.2811" stroke="#EF7F1A" stroke-width="0.903955" stroke-miterlimit="22.9256" stroke-linecap="round" stroke-linejoin="round"/>
<path d="M25.8104 44.8955H39.1699" stroke="#EF7F1A" stroke-width="0.903955" stroke-miterlimit="22.9256" stroke-linecap="round" stroke-linejoin="round"/>
<path d="M25.3334 55.3921H44.8955" stroke="#EF7F1A" stroke-width="0.903955" stroke-miterlimit="22.9256" stroke-linecap="round" stroke-linejoin="round"/>
<path d="M25.8104 57.7778H39.1699" stroke="#EF7F1A" stroke-width="0.903955" stroke-miterlimit="22.9256" stroke-linecap="round" stroke-linejoin="round"/>
<path d="M15.3137 30.5816L17.2222 32.4901L20.085 28.6731" stroke="#EF7F1A" stroke-width="0.903955" stroke-miterlimit="22.9256" stroke-linecap="round" stroke-linejoin="round"/>
<path d="M15.3137 43.4641L17.2222 45.8497L20.085 42.0327" stroke="#EF7F1A" stroke-width="0.903955" stroke-miterlimit="22.9256" stroke-linecap="round" stroke-linejoin="round"/>
<path d="M15.3137 56.3465L17.2222 58.255L20.085 54.438" stroke="#EF7F1A" stroke-width="0.903955" stroke-miterlimit="22.9256" stroke-linecap="round" stroke-linejoin="round"/>
<path d="M57.3007 83.5425C66.5235 83.5425 74 76.0659 74 66.8431C74 57.6204 66.5235 50.1438 57.3007 50.1438C48.0779 50.1438 40.6013 57.6204 40.6013 66.8431C40.6013 76.0659 48.0779 83.5425 57.3007 83.5425Z" stroke="#EF7F1A" stroke-width="1.80791" stroke-miterlimit="22.9256"/>
<path d="M66.8431 64.4575H61.5947V74.9543H66.8431V64.4575Z" stroke="#EF7F1A" stroke-width="0.903955" stroke-miterlimit="22.9256"/>
<path d="M61.5947 65.4118C60.6405 64.4575 59.2091 63.5033 58.732 62.549C57.7777 62.0719 57.3006 61.1177 57.3006 60.6406C56.8235 60.1634 56.8235 59.2092 56.8235 58.7321C56.3464 57.7778 56.3464 57.3007 56.3464 56.8236C56.3464 56.8236 56.3464 56.3464 55.8692 56.3464C55.8692 56.3464 55.3921 56.3464 54.915 56.3464C54.4379 56.3464 54.4379 56.3464 54.4379 56.8236C53.9607 57.3007 53.9607 57.7778 53.9607 58.7321C53.4836 59.2092 53.4836 60.1634 53.9607 61.1177C53.9607 62.0719 53.9607 62.5491 54.4379 63.5033C54.4379 63.9804 54.915 63.9804 54.915 63.9804C54.915 64.4576 54.4379 64.4576 53.4836 64.4576C52.5294 64.4576 50.1437 64.4576 49.1895 64.4576C48.2353 64.4576 47.7581 64.4576 47.7581 64.4576C47.7581 64.9347 47.281 65.4118 47.281 65.4118C47.281 65.8889 47.281 66.366 47.281 66.366C47.7581 66.8432 47.7581 67.3203 48.2353 67.3203C48.2353 67.3203 48.2353 67.3203 48.2353 67.7974C47.7581 67.7974 47.7581 67.7974 47.7581 68.2745V68.7517C48.2353 69.2288 48.2353 69.7059 48.2353 69.7059C48.7124 69.7059 48.7124 69.7059 48.7124 70.183C48.7124 70.6602 48.2353 70.6602 48.2353 71.1373C48.2353 71.6144 48.7124 71.6144 48.7124 72.0915C49.1895 72.5687 49.6666 72.5687 49.6666 72.5687V73.0458C49.6666 73.0458 49.6666 73.0458 49.6666 73.5229C49.6666 73.5229 49.6666 74 50.1437 74.4772C50.1437 74.4772 50.6209 74.9543 52.0522 74.9543C53.4836 74.9543 55.8692 74.9543 57.7777 74.4772C59.6862 74.4772 60.6405 74 61.5947 73.5229" stroke="#EF7F1A" stroke-width="0.903955" stroke-miterlimit="22.9256"/>
</svg>
